<svg xmlns="http://www.w3.org/2000/svg" xmlns:xlink="http://www.w3.org/1999/xlink" viewBox="0 0 109.3 102.1"><defs><style>.cls-1{fill:#2c2255;}.cls-2{fill:#f7941e;}.cls-3{fill:url(#Dégradé_sans_nom_2);}.cls-4{fill:url(#Dégradé_sans_nom_2-2);}.cls-5{fill:url(#Dégradé_sans_nom_3);}.cls-6{fill:#fff;}</style><linearGradient id="Dégradé_sans_nom_2" x1="60.3" y1="775.62" x2="60.3" y2="701.99" gradientTransform="translate(0 -669)" gradientUnits="userSpaceOnUse"><stop offset="0.3" stop-color="#473788"/><stop offset="0.87" stop-color="#2c2255"/></linearGradient><linearGradient id="Dégradé_sans_nom_2-2" x1="60.3" y1="775.63" x2="60.3" y2="701.99" xlink:href="#Dégradé_sans_nom_2"/><linearGradient id="Dégradé_sans_nom_3" x1="60.3" y1="775.62" x2="60.3" y2="701.99" gradientTransform="translate(0 -669)" gradientUnits="userSpaceOnUse"><stop offset="0.3" stop-color="#473788"/><stop offset="0.86" stop-color="#2c2255"/></linearGradient></defs><title>Fichier 2</title><g id="Calque_2" data-name="Calque 2"><g id="Layer_1" data-name="Layer 1"><path class="cls-1" d="M30,65.1H13.3A46.39,46.39,0,0,0,25.7,85.5,47.19,47.19,0,0,0,60.4,99.9a51.56,51.56,0,0,0,7.9-.6A46.18,46.18,0,0,0,95,85.5a46.39,46.39,0,0,0,12.4-20.4H30Z"/><path class="cls-1" d="M20.8,42.4H12.1a56.1,56.1,0,0,0-.6,5.9h97.8a56.1,56.1,0,0,0-.6-5.9"/><path class="cls-1" d="M11.4,53.8a56.1,56.1,0,0,0,.6,5.9h96.4a56.1,56.1,0,0,0,.6-5.9"/><path class="cls-1" d="M107.3,36.9A47.65,47.65,0,0,0,94.9,16.4C87.2,8.8,78.4,4.2,68.2,2.7a51.56,51.56,0,0,0-7.9-.6c-13.5,0-25,4.8-34.7,14.3A49.26,49.26,0,0,0,13.2,36.9"/><path class="cls-2" d="M8.5,51C8.5,25.2,27.9,3.7,53.1,0H51.2a51.05,51.05,0,1,0,.1,102.1h1.9C27.9,98.3,8.5,76.9,8.5,51Z"/><path class="cls-3" d="M93.6,48.3a38.26,38.26,0,0,0-1-5.9H28a38.26,38.26,0,0,0-1,5.9Z"/><path class="cls-4" d="M93.6,53.8H27a38.26,38.26,0,0,0,1,5.9H92.5A38.39,38.39,0,0,0,93.6,53.8Z"/><path class="cls-5" d="M60.3,84.4A33.52,33.52,0,0,0,90.6,65.1H30A33.41,33.41,0,0,0,60.3,84.4Z"/><path class="cls-6" d="M22.1,53.8h87.1c0-.9.1-1.7.1-2.6a25.28,25.28,0,0,0-.1-2.8H11.4a26.2,26.2,0,0,0-.1,2.8,21.75,21.75,0,0,0,.1,2.6Z"/><path class="cls-6" d="M29.8,36.9H13.3a48.78,48.78,0,0,0-1.2,5.5h96.2a49,49,0,0,0-1.3-5.5"/><path class="cls-6" d="M101.9,59.7H12.1a48.78,48.78,0,0,0,1.2,5.5h94a49,49,0,0,0,1.3-5.5Z"/></g></g></svg>